<svg width="100%" height="100%" viewBox="0 0 1210 1676" 
version="1.1" xmlns="http://www.w3.org/2000/svg"
 style="fill-rule:evenodd;clip-rule:evenodd;stroke-miterlimit:1.5;">
 <path d="M0.906,1663.72l0,-785.429l55.557,-289.172l70.185,-163.448l124.649,825.049l-250.391,413Z" style="fill:#fff;stroke:#fff;stroke-width:1.01px;"/>
 <path d="M414.397,1663.72l323.094,-627.476l-553.201,-159.307l33.498,260.416l16.4,110.09l-233.064,416.277l413.273,0Z" style="fill:#fff;stroke:#fff;stroke-width:1.01px;"/>
 <path d="M126.858,426.034l66.987,456.558l547.762,161.555l35.283,-944.384l-650.032,326.271Z" style="fill:#fff;stroke:#fff;stroke-width:1.01px;"/>
 <path d="M410.919,1661.46l320.112,-634.041l45.693,-927.623l315.441,-98.889l-208.477,1059.93l-472.769,600.627Z" style="fill:#fff;stroke:#fff;stroke-width:1.01px;"/>
 <path d="M409.312,1662.51l799.488,12.004l-170.814,-1175.8l-154.684,552.332l-473.99,611.461Z" style="fill:#fff;stroke:#fff;stroke-width:1.01px;"/>
 <path d="M1089.45,2.247l118.014,0l0,1670.22l-169.308,-1163.9l-152.563,541.008l203.857,-1047.33Z" style="fill:#fff;stroke:#fff;stroke-width:1.01px;"/>
 </svg>